<svg width="409" height="30" viewBox="0 0 409 30" fill="none" xmlns="http://www.w3.org/2000/svg">
<path d="M3 27L16.4333 15C24.0848 8.16499 35.6486 8.16499 43.3 15C50.9514 21.835 62.5153 21.835 70.1667 15C77.8181 8.16499 89.3819 8.16499 97.0333 15C104.685 21.835 116.249 21.835 123.9 15C131.551 8.16499 143.115 8.16499 150.767 15C158.418 21.835 169.982 21.835 177.633 15C185.285 8.16499 196.849 8.16499 204.5 15C212.151 21.835 223.715 21.835 231.367 15C239.018 8.16499 250.582 8.16499 258.233 15C265.885 21.835 277.449 21.835 285.1 15C292.751 8.16499 304.315 8.16499 311.967 15C319.618 21.835 331.182 21.835 338.833 15C346.485 8.16499 358.049 8.16499 365.7 15C373.351 21.835 384.915 21.835 392.567 15L406 3" stroke="#FFD93D" stroke-width="7"/>
</svg>
